<mxfile host="app.diagrams.net" modified="2023-09-18T07:45:00.194Z" agent="Mozilla/5.0 (Windows NT 10.0; Win64; x64) AppleWebKit/537.36 (KHTML, like Gecko) Chrome/105.0.0.0 Safari/537.36" version="21.7.5" etag="fdhXWL4uLCrS-ql6U2QV" type="github">
  <diagram name="第 1 页" id="5RPa9u0gAHbbq05Nesak">
    <mxGraphModel>
      <root>
        <mxCell id="0" />
        <mxCell id="1" parent="0" />
      </root>
    </mxGraphModel>
  </diagram>
</mxfile>
